<svg xmlns="http://www.w3.org/2000/svg" viewBox="0 0 512 512" role="img" aria-label="Líder Seguros">
<rect width="512" height="512" rx="96" fill="#ffffff"/>
<g transform="translate(81.1546 44.0000) scale(0.437113)">
<path d="M 15 10 L 11 334 L 23 371 L 46 419 L 67 453 L 101 495 L 137 527 L 168 548 L 213 570 L 255 585 L 292 594 L 349 600 L 350 321 L 337 253 L 310 188 L 265 124 L 236 95 L 195 64 L 151 40 L 108 24 L 63 14 Z" fill="#003366"/>
<path d="M 438 608 L 477 620 L 529 651 L 579 697 L 606 731 L 636 781 L 655 830 L 666 886 L 667 946 L 790 947 L 785 886 L 766 820 L 751 788 L 731 755 L 707 724 L 686 702 L 658 678 L 624 655 L 567 628 L 506 612 L 470 608 Z" fill="#003366"/>
<path d="M 10 386 L 9 643 L 15 680 L 35 742 L 57 784 L 85 823 L 123 862 L 190 908 L 246 931 L 293 942 L 374 947 L 649 947 L 646 876 L 628 808 L 590 740 L 536 680 L 493 649 L 449 629 L 273 609 L 211 589 L 163 566 L 120 537 L 75 493 L 39 443 Z" fill="#F57C00"/>
</g></svg>
